External Loads File
version=1
nRows=69
nColumns=13
Range=5.000000e-03-10 seconds
endheader
time 	forceRightX 	forceRightY 	forceRightZ 	pointRightX 	pointRightY 	pointRightZ 	forceLeftX 	forceLeftY 	forceLeftZ 	pointLeftX 	pointLeftY 	pointLeftZ 		
2.505000 40.717227 -219.071906 -0.000000 0.167772 0.245189 -0.183369 -286.817359 726.810876 -0.000000 0.426789 0.411353 -0.447659
2.510000 37.322829 -216.750406 -0.000000 0.165472 0.249017 -0.183507 -285.241243 735.296530 -0.000000 0.429045 0.407468 -0.447507
2.515000 33.698233 -214.357975 -0.000000 0.163191 0.252958 -0.183511 -282.777018 743.315218 -0.000000 0.431334 0.403471 -0.447290
2.520000 30.163563 -211.804587 -0.000000 0.160961 0.256937 -0.183646 -280.378063 750.567394 -0.000000 0.433542 0.399494 -0.447182
2.525000 26.496728 -209.095248 -0.000000 0.158838 0.261056 -0.183531 -277.075897 757.525786 -0.000000 0.435937 0.395479 -0.447107
2.530000 22.956192 -206.179799 -0.000000 0.156775 0.265260 -0.183630 -273.573316 764.027679 -0.000000 0.438086 0.391327 -0.447032
2.535000 19.576473 -203.054751 -0.000000 0.154845 0.269518 -0.183728 -269.823653 770.153701 -0.000000 0.440178 0.387109 -0.446947
2.540000 16.342429 -199.731199 -0.000000 0.153049 0.273899 -0.183835 -265.621930 776.007414 -0.000000 0.442168 0.382781 -0.446856
2.545000 13.261178 -196.233702 -0.000000 0.151227 0.278334 -0.184008 -260.857739 781.642366 -0.000000 0.444144 0.378337 -0.446787
2.550000 10.455453 -192.602287 -0.000000 0.149577 0.282846 -0.184195 -255.944351 786.930667 -0.000000 0.445985 0.373859 -0.446732
2.555000 7.965836 -188.904064 -0.000000 0.148043 0.287375 -0.184242 -251.072330 791.830320 -0.000000 0.447663 0.369410 -0.446737
2.560000 5.490519 -185.223373 -0.000000 0.146619 0.292077 -0.184440 -245.059744 796.746221 -0.000000 0.449298 0.364769 -0.446309
2.565000 3.240053 -181.607512 -0.000000 0.145300 0.296825 -0.184537 -238.981447 801.394177 -0.000000 0.450814 0.360148 -0.446379
2.570000 1.216172 -178.082127 -0.000000 0.144219 0.301537 -0.184681 -233.159678 805.766152 -0.000000 0.452191 0.355472 -0.446307
2.575000 -0.724936 -174.633032 -0.000000 0.143159 0.306337 -0.184773 -227.219329 810.050199 -0.000000 0.453472 0.350734 -0.446334
2.580000 -2.640916 -171.214384 -0.000000 0.142295 0.311272 -0.184874 -221.060613 814.300613 -0.000000 0.454629 0.345891 -0.446314
2.585000 -4.406967 -167.774238 -0.000000 0.141456 0.316161 -0.185276 -215.404654 818.294518 -0.000000 0.455608 0.341047 -0.446496
2.590000 -6.180076 -164.263524 -0.000000 0.140833 0.321122 -0.185595 -209.631770 822.143272 -0.000000 0.456510 0.336139 -0.446443
2.595000 -8.036623 -160.643996 -0.000000 0.140355 0.326251 -0.185829 -203.555868 825.833751 -0.000000 0.457391 0.331196 -0.446409
2.600000 -9.843919 -156.890112 -0.000000 0.139983 0.331254 -0.186140 -198.134365 829.087765 -0.000000 0.458090 0.326244 -0.446323
2.605000 -11.775248 -152.962768 -0.000000 0.139748 0.336395 -0.186392 -192.637093 832.065648 -0.000000 0.458645 0.321283 -0.446319
2.610000 -13.753940 -148.865581 -0.000000 0.139696 0.341511 -0.186831 -187.381824 834.697722 -0.000000 0.459122 0.316257 -0.446232
2.615000 -15.708188 -144.660797 -0.000000 0.139816 0.346603 -0.187404 -182.504085 836.984462 -0.000000 0.459488 0.311227 -0.446176
2.620000 -17.637423 -140.460237 -0.000000 0.140077 0.351813 -0.187810 -177.714435 839.035100 -0.000000 0.459687 0.306262 -0.446158
2.625000 -19.530692 -136.406038 -0.000000 0.140427 0.356986 -0.188007 -172.831306 840.932196 -0.000000 0.459849 0.301159 -0.446456
2.630000 -21.309907 -132.635844 -0.000000 0.140924 0.362203 -0.188480 -168.174459 842.610892 -0.000000 0.459895 0.296157 -0.446529
2.635000 -23.073273 -129.200273 -0.000000 0.141815 0.367368 -0.189153 -163.074423 844.129937 -0.000000 0.459520 0.291084 -0.445988
2.640000 -24.837437 -126.081017 -0.000000 0.142759 0.372651 -0.189688 -157.444136 845.381217 -0.000000 0.459189 0.285966 -0.445933
2.645000 -26.527621 -123.215680 -0.000000 0.143911 0.377837 -0.190133 -151.872717 846.153994 -0.000000 0.458752 0.280900 -0.445885
2.650000 -28.155516 -120.499962 -0.000000 0.145171 0.382938 -0.190687 -146.412045 846.396052 -0.000000 0.458120 0.275905 -0.445833
2.655000 -29.844190 -117.811559 -0.000000 0.146714 0.388081 -0.191093 -140.239056 846.238657 -0.000000 0.457338 0.270841 -0.445785
2.660000 -31.475584 -115.118129 -0.000000 0.148402 0.393183 -0.191523 -134.058572 845.566793 -0.000000 0.456494 0.265818 -0.445751
2.665000 -33.065795 -112.397794 -0.000000 0.150257 0.398420 -0.191932 -127.573307 844.458657 -0.000000 0.455457 0.260935 -0.445682
2.670000 -34.577336 -109.678465 -0.000000 0.152320 0.403517 -0.192410 -121.080954 842.923837 -0.000000 0.454330 0.255942 -0.445615
2.675000 -36.032089 -106.981723 -0.000000 0.154562 0.408568 -0.192879 -114.802098 841.007064 -0.000000 0.453104 0.250989 -0.445582
2.680000 -37.464409 -104.312160 -0.000000 0.156994 0.413532 -0.193362 -109.072552 838.738343 -0.000000 0.451729 0.246169 -0.445496
2.685000 -38.976136 -101.637451 -0.000000 0.159606 0.418489 -0.193780 -103.544588 836.207346 -0.000000 0.450231 0.241397 -0.445429
2.690000 -40.576032 -98.955227 -0.000000 0.162397 0.423340 -0.194398 -98.286963 833.385042 -0.000000 0.448697 0.236576 -0.445371
2.695000 -42.256547 -96.277979 -0.000000 0.165464 0.428059 -0.194877 -93.345079 830.154520 -0.000000 0.446976 0.231896 -0.445335
2.700000 -44.149945 -93.562716 -0.000000 0.168694 0.432847 -0.195259 -87.565667 826.418142 -0.000000 0.445089 0.227055 -0.445427
2.705000 -46.210551 -90.827216 -0.000000 0.172085 0.437551 -0.195455 -81.320703 821.837036 -0.000000 0.443093 0.222174 -0.445480
2.710000 -48.333618 -88.104489 -0.000000 0.175756 0.441965 -0.195769 -75.611177 816.065759 -0.000000 0.440856 0.217761 -0.445438
2.715000 -50.707939 -85.269593 -0.000000 0.179552 0.446592 -0.195983 -68.910380 809.090440 -0.000000 0.438522 0.213389 -0.445339
2.720000 -53.306659 -82.308213 -0.000000 0.183466 0.451024 -0.196249 -61.693161 800.746652 -0.000000 0.436164 0.208835 -0.445306
2.725000 -56.145751 -79.179805 -0.000000 0.188024 0.455244 -0.196074 -53.883596 790.938535 -0.000000 0.433545 0.204740 -0.445263
2.730000 -59.024676 -76.008057 -0.000000 0.191640 0.459440 -0.197146 -47.398559 779.466202 -0.000000 0.430811 0.200665 -0.445229
2.735000 -62.229229 -72.541623 -0.000000 0.196053 0.463607 -0.197507 -38.939239 766.471475 -0.000000 0.428001 0.196511 -0.445173
2.740000 -65.508198 -68.899694 -0.000000 0.200752 0.467438 -0.197835 -30.266908 751.733998 -0.000000 0.424995 0.192560 -0.445116
2.745000 -68.923232 -64.912920 -0.000000 0.206389 0.471363 -0.197493 -19.582514 735.152694 -0.000000 0.421898 0.188703 -0.445123
2.750000 -72.090187 -60.833101 -0.000000 0.211523 0.475092 -0.197697 -9.862493 716.445790 -0.000000 0.418757 0.185011 -0.445045
2.755000 -74.912394 -56.653320 -0.000000 0.216235 0.478608 -0.198204 -1.024545 695.542503 -0.000000 0.415384 0.181500 -0.445050
2.760000 -77.486954 -52.121663 -0.000000 0.221685 0.482198 -0.198391 9.142429 672.437276 -0.000000 0.411983 0.178004 -0.444991
2.765000 -79.627749 -47.381275 -0.000000 0.227335 0.485513 -0.198611 18.994971 647.181877 -0.000000 0.408539 0.174719 -0.444961
2.770000 -81.322447 -42.379573 -0.000000 0.233184 0.488759 -0.198824 28.621587 619.882665 -0.000000 0.404958 0.171589 -0.444940
2.775000 -82.576363 -37.103541 -0.000000 0.239125 0.491762 -0.198983 37.766979 590.669641 -0.000000 0.401263 0.168535 -0.444926
2.780000 -83.448530 -31.559821 -0.000000 0.245124 0.494525 -0.199141 46.064852 559.710165 -0.000000 0.397502 0.165708 -0.444950
2.785000 -84.085703 -25.654891 -0.000000 0.251317 0.497253 -0.199350 53.773097 527.151082 -0.000000 0.393644 0.163083 -0.444905
2.790000 -84.636799 -19.298687 -0.000000 0.257704 0.499802 -0.199430 60.913678 493.181676 -0.000000 0.389675 0.160430 -0.444859
2.795000 -85.220524 -12.445425 -0.000000 0.264220 0.502032 -0.199532 67.021066 458.134472 -0.000000 0.385627 0.158142 -0.444805
2.800000 -85.956269 -4.854990 -0.000000 0.270977 0.504133 -0.199989 72.538633 422.316830 -0.000000 0.381237 0.156003 -0.444300
2.805000 -86.899314 3.487448 -0.000000 0.277693 0.506082 -0.200031 76.805540 386.279336 -0.000000 0.377047 0.153990 -0.444260
2.810000 -88.089435 12.704364 -0.000000 0.284427 0.507762 -0.199988 80.097070 350.499193 -0.000000 0.372652 0.152232 -0.444246
2.815000 -89.527928 22.809726 -0.000000 0.291238 0.509364 -0.200080 82.486368 315.532394 -0.000000 0.368186 0.150713 -0.444113
2.820000 -91.198417 33.749841 -0.000000 0.297945 0.510753 -0.200107 83.951366 281.975943 -0.000000 0.363653 0.149312 -0.444046
2.825000 -93.026976 45.549795 -0.000000 0.304722 0.511933 -0.200095 84.754417 250.306977 -0.000000 0.358918 0.148248 -0.443959
2.830000 -94.944454 58.162984 -0.000000 0.311360 0.512846 -0.199977 84.886421 221.001004 -0.000000 0.354159 0.147318 -0.443826
2.835000 -96.813321 71.671610 -0.000000 0.317973 0.513403 -0.199939 84.599230 194.365868 -0.000000 0.349263 0.146626 -0.443627
2.840000 -98.508620 86.139854 -0.000000 0.324457 0.513902 -0.199869 83.986865 170.672369 -0.000000 0.344262 0.146153 -0.443431
2.845000 -99.876325 101.705417 -0.000000 0.330954 0.514112 -0.199889 83.210747 150.028631 -0.000000 0.339196 0.145803 -0.443214
